<svg xmlns="http://www.w3.org/2000/svg" xmlns:xlink="http://www.w3.org/1999/xlink" width="500" zoomAndPan="magnify" viewBox="0 0 375 374.999991" height="500" preserveAspectRatio="xMidYMid meet" version="1.2"><defs><clipPath id="65cd05a150"><path d="M 21.136719 0 L 354.136719 0 L 354.136719 375 L 21.136719 375 Z M 21.136719 0 "/></clipPath></defs><g id="1119e1f54b"><g clip-rule="nonzero" clip-path="url(#65cd05a150)"><path style=" stroke:none;fill-rule:nonzero;fill:#000000;fill-opacity:1;" d="M 345.664062 296.484375 C 343.632812 277.769531 328.449219 263.503906 309.886719 262.355469 L 303.769531 192.425781 C 301.222656 163.335938 287.953125 136.453125 266.414062 116.726562 C 244.867188 97 216.910156 86.136719 187.6875 86.136719 C 158.464844 86.136719 130.503906 97.003906 108.960938 116.726562 C 87.417969 136.453125 74.152344 163.335938 71.609375 192.425781 L 65.488281 262.355469 C 46.925781 263.503906 31.742188 277.769531 29.710938 296.484375 L 21.238281 374.53125 L 354.136719 374.53125 Z M 102.679688 195.136719 C 106.558594 150.761719 143.105469 117.300781 187.6875 117.300781 C 232.273438 117.300781 268.8125 150.765625 272.695312 195.136719 L 278.566406 262.246094 L 96.808594 262.246094 Z M 55.992188 343.367188 L 60.714844 299.84375 C 61.113281 296.179688 64.195312 293.410156 67.886719 293.410156 L 307.480469 293.410156 C 311.171875 293.410156 314.257812 296.179688 314.652344 299.84375 L 319.375 343.367188 Z M 187.6875 69.335938 C 196.300781 69.335938 203.285156 62.363281 203.285156 53.753906 L 203.285156 15.636719 C 203.285156 7.03125 196.304688 0.0546875 187.6875 0.0546875 C 179.078125 0.0546875 172.089844 7.027344 172.089844 15.636719 L 172.089844 53.753906 C 172.089844 62.363281 179.070312 69.335938 187.6875 69.335938 Z M 106.113281 79.769531 C 109 84.769531 114.246094 87.5625 119.632812 87.5625 C 122.277344 87.5625 124.964844 86.890625 127.417969 85.472656 C 134.878906 81.167969 137.433594 71.636719 133.128906 64.183594 L 114.054688 31.175781 C 109.753906 23.71875 100.214844 21.167969 92.75 25.46875 C 85.289062 29.773438 82.738281 39.304688 87.039062 46.757812 Z M 247.957031 85.472656 C 250.414062 86.890625 253.09375 87.5625 255.742188 87.5625 C 261.132812 87.5625 266.375 84.765625 269.265625 79.769531 L 288.335938 46.761719 C 292.644531 39.308594 290.085938 29.777344 282.625 25.472656 C 275.160156 21.167969 265.628906 23.726562 261.320312 31.179688 L 242.246094 64.1875 C 237.9375 71.640625 240.496094 81.171875 247.957031 85.472656 Z M 124.433594 197.039062 L 120.636719 240.429688 L 187.6875 240.429688 L 187.6875 139.121094 C 154.515625 139.121094 127.320312 164.015625 124.433594 197.039062 Z M 124.433594 197.039062 "/></g></g></svg>