<?xml version="1.0" standalone="no"?>
<!DOCTYPE svg PUBLIC "-//W3C//DTD SVG 20010904//EN"
 "http://www.w3.org/TR/2001/REC-SVG-20010904/DTD/svg10.dtd">
<svg version="1.0" xmlns="http://www.w3.org/2000/svg"
 width="363.000000pt" height="100.000000pt" viewBox="0 0 363.000000 100.000000"
 preserveAspectRatio="xMidYMid meet">

<g transform="translate(0.000000,100.000000) scale(0.100000,-0.100000)"
fill="#000000" stroke="none">
<path d="M720 809 c-69 -3 -146 -9 -172 -14 l-48 -7 0 -189 0 -189 50 0 50 0
0 154 0 154 87 7 c108 9 371 1 385 -13 5 -5 8 -72 6 -156 l-3 -146 53 0 52 0
0 189 0 189 -47 7 c-85 13 -285 20 -413 14z"/>
<path d="M1525 799 c-38 -5 -76 -11 -82 -14 -10 -3 -13 -48 -13 -179 l0 -174
36 -7 c129 -24 482 -24 602 1 l32 7 0 83 c0 73 -2 84 -17 84 -17 1 -17 1 0 11
14 8 17 25 17 93 l0 84 -37 6 c-68 11 -466 15 -538 5z m467 -85 c4 -3 8 -14 8
-24 0 -30 -82 -41 -285 -38 l-180 3 0 30 c0 30 0 30 70 36 73 7 374 1 387 -7z
m-19 -162 c16 -7 27 -19 27 -30 0 -15 -10 -21 -46 -26 -60 -8 -269 -8 -356 1
-66 6 -68 7 -68 33 0 15 3 30 8 34 11 12 403 1 435 -12z"/>
<path d="M2500 805 c-8 -2 -41 -7 -72 -10 l-58 -6 0 -190 0 -189 50 0 50 0 0
75 0 75 123 0 c126 1 339 14 415 26 l43 7 -3 95 -3 96 -35 9 c-35 9 -482 19
-510 12z m363 -81 c75 -7 77 -7 77 -34 0 -26 -2 -27 -67 -33 -38 -4 -143 -7
-235 -7 l-168 0 0 34 c0 34 1 35 48 39 87 7 268 7 345 1z"/>
<path d="M3274 348 c-15 -19 -16 -20 -1 -9 16 12 17 10 18 -35 1 -27 4 -39 6
-26 2 12 10 22 17 22 8 0 21 -10 29 -22 9 -13 16 -18 16 -11 1 6 -3 15 -9 18
-6 4 -5 13 3 26 14 23 -2 38 -43 39 -20 0 -22 2 -10 10 8 5 10 10 4 10 -6 0
-19 -10 -30 -22z m71 -23 c0 -5 -10 -11 -22 -13 -16 -2 -23 2 -23 13 0 11 7
15 23 13 12 -2 22 -7 22 -13z"/>
<path d="M3360 356 c0 -2 8 -10 18 -17 15 -13 16 -12 3 4 -13 16 -21 21 -21
13z"/>
<path d="M3252 300 c0 -14 2 -19 5 -12 2 6 2 18 0 25 -3 6 -5 1 -5 -13z"/>
<path d="M3392 300 c0 -14 2 -19 5 -12 2 6 2 18 0 25 -3 6 -5 1 -5 -13z"/>
<path d="M346 233 c-16 -43 -31 -84 -34 -90 -8 -25 19 -13 28 12 8 21 16 25
50 25 28 0 40 -4 40 -14 0 -16 30 -50 37 -43 8 8 -69 187 -81 187 -6 0 -24
-35 -40 -77z m47 -31 c-33 -5 -34 -2 -21 42 l12 39 17 -39 c16 -39 16 -39 -8
-42z"/>
<path d="M700 295 c0 -8 5 -15 10 -15 6 0 10 7 10 15 0 8 -4 15 -10 15 -5 0
-10 -7 -10 -15z"/>
<path d="M1106 303 c-11 -11 -6 -23 9 -23 8 0 15 4 15 9 0 13 -16 22 -24 14z"/>
<path d="M1680 220 c0 -53 4 -90 10 -90 6 0 10 37 10 90 0 53 -4 90 -10 90 -6
0 -10 -37 -10 -90z"/>
<path d="M2816 301 c-4 -7 -5 -15 -2 -18 9 -9 19 4 14 18 -4 11 -6 11 -12 0z"/>
<path d="M995 290 c-5 -8 -8 -44 -7 -80 3 -66 19 -99 42 -85 9 6 8 10 -4 17
-24 13 -23 98 2 98 16 1 16 2 1 13 -9 7 -18 21 -21 32 -3 17 -5 17 -13 5z"/>
<path d="M2698 273 c-9 -18 -12 -33 -7 -33 5 0 9 -22 9 -49 0 -50 18 -79 41
-65 8 5 7 9 -5 16 -20 11 -23 94 -3 101 9 4 9 8 1 14 -7 4 -13 17 -16 28 -3
17 -6 15 -20 -12z"/>
<path d="M3361 250 c-13 -11 -19 -20 -14 -20 6 0 18 9 28 20 23 25 17 25 -14
0z"/>
<path d="M522 248 c3 -7 13 -37 23 -65 11 -29 24 -53 31 -53 10 0 54 98 54
121 0 25 -18 3 -35 -43 l-18 -52 -20 52 c-11 29 -24 52 -29 52 -6 0 -8 -6 -6
-12z"/>
<path d="M700 195 c0 -37 4 -65 10 -65 6 0 10 28 10 65 0 37 -4 65 -10 65 -6
0 -10 -28 -10 -65z"/>
<path d="M814 246 c-10 -8 -16 -18 -12 -22 4 -4 14 -1 22 5 18 15 58 11 63 -6
3 -7 -8 -15 -24 -18 -42 -9 -58 -20 -61 -42 -4 -29 22 -47 55 -37 16 4 34 6
41 5 16 -3 17 100 0 117 -16 16 -60 15 -84 -2z m76 -64 c0 -19 -28 -44 -45
-41 -28 6 -30 28 -3 38 29 12 48 13 48 3z"/>
<path d="M1106 253 c-3 -3 -6 -33 -6 -65 0 -45 3 -58 15 -58 12 0 15 13 15 59
0 56 -9 79 -24 64z"/>
<path d="M1217 242 c-26 -29 -22 -88 7 -107 29 -19 72 -11 86 15 37 69 -43
147 -93 92z m73 -23 c16 -28 5 -66 -21 -74 -27 -9 -49 11 -49 44 0 50 49 70
70 30z"/>
<path d="M1390 195 c0 -37 4 -65 10 -65 6 0 10 20 10 44 0 46 19 72 45 62 11
-4 15 -20 15 -56 0 -38 4 -50 15 -50 21 0 21 93 -1 114 -18 19 -45 21 -62 4
-9 -9 -12 -9 -12 0 0 7 -4 12 -10 12 -6 0 -10 -28 -10 -65z"/>
<path d="M1787 253 c-4 -3 -7 -33 -7 -65 0 -44 3 -58 14 -58 11 0 16 15 18 53
3 48 5 52 28 52 23 0 25 -4 28 -52 2 -29 7 -53 13 -53 13 0 11 104 -3 118 -15
15 -55 16 -64 1 -5 -8 -8 -8 -13 0 -4 6 -10 8 -14 4z"/>
<path d="M1970 195 c0 -37 4 -65 10 -65 6 0 10 20 10 44 0 46 19 72 45 62 11
-4 15 -20 15 -56 0 -38 4 -50 15 -50 16 0 21 53 9 98 -8 26 -48 39 -69 22 -10
-9 -15 -9 -15 -1 0 6 -4 11 -10 11 -6 0 -10 -28 -10 -65z"/>
<path d="M2167 242 c-26 -29 -22 -88 7 -107 29 -19 72 -11 86 15 37 69 -43
147 -93 92z m73 -22 c23 -44 -20 -99 -55 -70 -18 15 -20 61 -3 78 18 18 46 14
58 -8z"/>
<path d="M2332 248 c3 -7 13 -37 23 -65 11 -29 24 -53 31 -53 14 0 57 106 51
124 -3 6 -15 -13 -28 -43 l-24 -53 -19 51 c-10 28 -23 51 -28 51 -6 0 -8 -6
-6 -12z"/>
<path d="M2524 246 c-10 -8 -16 -18 -11 -22 4 -4 13 -2 19 4 17 17 55 15 62
-3 4 -10 -3 -17 -22 -21 -53 -12 -60 -15 -66 -31 -11 -28 27 -57 61 -48 15 5
34 7 41 6 15 -2 17 81 2 110 -13 23 -57 25 -86 5z m76 -64 c0 -19 -28 -44 -46
-40 -28 5 -30 36 -2 41 39 7 48 7 48 -1z"/>
<path d="M2817 253 c-11 -10 -8 -123 3 -123 6 0 10 28 10 65 0 65 -1 71 -13
58z"/>
<path d="M2927 242 c-10 -10 -17 -35 -17 -55 0 -66 70 -87 106 -32 42 64 -39
142 -89 87z m73 -26 c12 -32 2 -64 -22 -71 -26 -9 -48 12 -48 44 0 51 53 71
70 27z"/>
<path d="M3100 195 c0 -37 4 -65 10 -65 6 0 10 20 10 44 0 46 19 72 45 62 11
-4 15 -20 15 -56 0 -33 4 -50 13 -50 8 0 11 17 9 60 -3 54 -6 61 -28 66 -14 4
-31 1 -39 -6 -10 -9 -15 -9 -15 -1 0 6 -4 11 -10 11 -6 0 -10 -28 -10 -65z"/>
<path d="M3287 239 c7 -7 15 -10 18 -7 3 3 -2 9 -12 12 -14 6 -15 5 -6 -5z"/>
</g>
</svg>
